<?xml version="1.0" standalone="no"?><!DOCTYPE svg PUBLIC "-//W3C//DTD SVG 1.1//EN" "http://www.w3.org/Graphics/SVG/1.1/DTD/svg11.dtd"><svg t="1636046162164" class="icon" viewBox="0 0 1024 1024" version="1.1" xmlns="http://www.w3.org/2000/svg" p-id="6111" xmlns:xlink="http://www.w3.org/1999/xlink" width="200" height="200"><defs><style type="text/css"></style></defs><path d="M951.928 646.841h-92.303v-84.174c0-38.294-31.068-69.362-69.362-69.362H544.965v-134.21h92.303c34.5 0 62.68-28.178 62.68-62.679V87.968c0-34.501-28.18-62.68-62.68-62.68H387.635c-34.5 0-62.679 28.179-62.679 62.68v208.268c0 34.5 28.179 62.679 62.68 62.679h92.302v134.209H234.82c-38.294 0-69.363 31.069-69.363 69.363v93.747H72.975c-34.5 0-62.679 28.179-62.679 62.68v208.448c0 34.5 28.179 62.68 62.68 62.68h249.632c34.5 0 62.679-28.18 62.679-62.68V718.913c0-34.5-28.179-62.679-62.68-62.679h-92.302v-93.747c0-2.349 1.987-4.336 4.335-4.336h555.442c2.348 0 4.335 1.987 4.335 4.336v84.174h-92.302c-34.501 0-62.68 28.178-62.68 62.679v208.449c0 34.5 28.179 62.679 62.68 62.679h249.813c34.5 0 62.68-28.179 62.68-62.68V709.34c0-34.5-28.18-62.499-62.68-62.499zM390.164 90.316H634.92v203.571H390.164V90.316zM320.26 924.833H75.504V721.262H320.26v203.571z m629.32-9.573H704.643V711.869H949.4v203.39z" p-id="6112"></path></svg>