<?xml version="1.0" standalone="no"?><!DOCTYPE svg PUBLIC "-//W3C//DTD SVG 1.1//EN" "http://www.w3.org/Graphics/SVG/1.1/DTD/svg11.dtd"><svg t="1636077843439" class="icon" viewBox="0 0 1024 1024" version="1.1" xmlns="http://www.w3.org/2000/svg" p-id="32216" xmlns:xlink="http://www.w3.org/1999/xlink" width="200" height="200"><defs><style type="text/css"></style></defs><path d="M871 530c48.601 0 88 39.399 88 88v252c0 48.601-39.399 88-88 88H619c-48.601 0-88-39.399-88-88V618c0-48.601 39.399-88 88-88h252z m0 54H619c-18.59 0-33.695 14.92-33.995 33.438L585 618v252c0 18.59 14.92 33.695 33.438 33.995L619 904h252c18.59 0 33.695-14.92 33.995-33.438L905 870V618c0-18.59-14.92-33.695-33.438-33.995L871 584zM407 530c48.601 0 88 39.399 88 88v252c0 48.601-39.399 88-88 88H155c-48.601 0-88-39.399-88-88V618c0-48.601 39.399-88 88-88h252z m0 54H155c-18.59 0-33.695 14.92-33.995 33.438L121 618v252c0 18.59 14.92 33.695 33.438 33.995L155 904h252c18.59 0 33.695-14.92 33.995-33.438L441 870V618c0-18.59-14.92-33.695-33.438-33.995L407 584zM871 66c48.601 0 88 39.399 88 88v252c0 48.601-39.399 88-88 88H619c-48.601 0-88-39.399-88-88V154c0-48.601 39.399-88 88-88h252z m0 54H619c-18.59 0-33.695 14.92-33.995 33.438L585 154v252c0 18.59 14.92 33.695 33.438 33.995L619 440h252c18.59 0 33.695-14.92 33.995-33.438L905 406V154c0-18.59-14.92-33.695-33.438-33.995L871 120zM282.498 190C232.046 190 191 231.05 191 281.502S232.046 373 282.498 373C332.954 373 374 331.954 374 281.502 373.995 231.046 332.95 190 282.498 190zM282 336c-30.327 0-55-24.673-55-55s24.673-55 55-55 55 24.673 55 55-24.673 55-55 55z m202.172-22.192l-27.274-15.74c0.612-6.003 0.92-12.033 0.92-18.068 0-6.024-0.31-12.078-0.92-18.068l27.274-15.74c10.343-5.97 13.902-19.24 7.93-29.578l-50.382-87.228c-5.972-10.339-19.248-13.892-29.59-7.926l-27.274 15.74a175.735 175.735 0 0 0-31.31-18.102V87.65c0-11.94-9.716-21.651-21.665-21.651H231.118c-11.945 0-21.66 9.716-21.66 21.651v31.45a176.03 176.03 0 0 0-31.31 18.103l-27.278-15.74c-10.343-5.97-23.618-2.417-29.59 7.926l-50.382 87.224c-5.973 10.339-2.414 23.608 7.93 29.578l27.273 15.74c-0.61 5.99-0.92 12.044-0.92 18.068 0 6.02 0.31 12.078 0.92 18.068l-27.274 15.74c-10.343 5.97-13.902 19.24-7.93 29.582l50.382 87.224c5.973 10.343 19.248 13.896 29.59 7.926l27.279-15.74a176.117 176.117 0 0 0 31.31 18.098v31.45c0 11.94 9.715 21.652 21.66 21.652h100.763c11.945 0 21.665-9.716 21.665-21.651v-31.45a176.265 176.265 0 0 0 31.31-18.099l27.273 15.74c10.348 5.97 23.623 2.417 29.591-7.926l50.382-87.224c5.972-10.343 2.417-23.608-7.93-29.582z m-82.095 78.32l-21.644-12.459c-6.616-3.804-14.786-3.269-20.818 1.37a127.095 127.095 0 0 1-29.122 16.793 18.629 18.629 0 0 0-11.58 17.282V440H245.08v-24.886a18.626 18.626 0 0 0-11.576-17.282 127.228 127.228 0 0 1-29.122-16.794c-6.032-4.638-14.206-5.176-20.818-1.369l-21.644 12.46L125 328.369l21.637-12.455c6.598-3.796 10.217-11.108 9.224-18.625a127.832 127.832 0 0 1-1.105-16.79c0-5.61 0.373-11.26 1.105-16.791 0.997-7.518-2.623-14.826-9.224-18.626L125 232.627l36.919-63.76 21.644 12.46c6.612 3.808 14.782 3.27 20.818-1.37a127.228 127.228 0 0 1 29.122-16.793 18.629 18.629 0 0 0 11.58-17.282V121h73.838v24.882a18.623 18.623 0 0 0 11.58 17.282 127.172 127.172 0 0 1 29.121 16.794c6.033 4.635 14.203 5.173 20.815 1.369l21.644-12.46L439 232.628l-21.637 12.455c-6.601 3.8-10.217 11.112-9.224 18.63a127.79 127.79 0 0 1 1.105 16.79c0 5.61-0.37 11.256-1.105 16.79-0.997 7.518 2.623 14.83 9.224 18.626L439 328.373l-36.923 63.756z" p-id="32217" fill="#dbdbdb"></path></svg>