<?xml version="1.0" standalone="no"?><!DOCTYPE svg PUBLIC "-//W3C//DTD SVG 1.1//EN" "http://www.w3.org/Graphics/SVG/1.1/DTD/svg11.dtd"><svg t="1628930656279" class="icon" viewBox="0 0 1024 1024" version="1.1" xmlns="http://www.w3.org/2000/svg" p-id="3887" xmlns:xlink="http://www.w3.org/1999/xlink" width="1000" height="1000"><defs><style type="text/css"></style></defs><path d="M669.867 580.267l-102.4-59.733-12.8-8.534 12.8-8.533 102.4-59.733c12.8-4.267 12.8-17.067 8.533-25.6-4.266-8.534-17.066-12.8-29.866-8.534l-102.401 59.733-12.8 8.533V341.333c0-12.8-8.533-21.333-21.333-21.333s-21.334 8.533-21.334 21.333V473.6l-12.8-4.267-102.4-59.733c-12.8-8.533-25.6-4.267-29.866 8.533-4.267 8.534-4.267 21.334 8.533 25.6l102.4 59.734 12.8 8.533-12.8 8.533-102.4 59.734c-12.8 4.266-12.8 17.066-8.533 29.866 4.266 8.534 17.066 12.8 29.866 8.534l102.4-59.734 12.8-8.533v132.267c0 12.8 8.534 21.333 21.334 21.333s21.333-8.533 21.333-21.333V550.4l12.8 8.533 102.4 59.734c8.533 4.266 21.333 4.266 29.867-8.534 4.266-12.8 4.266-25.6-8.534-29.866z" p-id="3888" fill="#d81e06"></path></svg>