<?xml version="1.0" standalone="no"?><!DOCTYPE svg PUBLIC "-//W3C//DTD SVG 1.1//EN" "http://www.w3.org/Graphics/SVG/1.1/DTD/svg11.dtd"><svg t="1636046508943" class="icon" viewBox="0 0 1024 1024" version="1.1" xmlns="http://www.w3.org/2000/svg" p-id="2673" xmlns:xlink="http://www.w3.org/1999/xlink" width="200" height="200"><defs><style type="text/css"></style></defs><path d="M778.24 561.152l-139.264 139.264-54.784-54.784c-8.192-8.192-18.944-12.288-30.208-12.288s-22.016 4.608-30.208 12.288c-8.192 8.192-12.288 18.944-12.288 30.208s4.608 22.016 12.288 30.208l84.48 84.48c8.192 8.192 18.944 12.288 30.208 12.288s22.016-4.608 30.208-12.288l169.472-169.472c16.384-16.384 16.384-43.52 0-59.904-16.384-16.384-43.008-16.384-59.904 0z" p-id="2674"></path><path d="M364.544 873.472H179.2c-37.376 0-68.096-30.72-68.096-68.096v-624.64C111.104 143.36 141.824 112.64 179.2 112.64h539.648c37.376 0 68.096 30.72 68.096 68.096V302.08c0 17.408 14.336 31.744 31.744 31.744 17.408 0 31.744-14.336 31.744-31.744V180.736c0-72.704-59.392-131.584-132.096-132.096H179.2C106.496 48.64 47.616 108.032 47.104 180.736v624.64c0 72.704 59.392 131.584 132.096 132.096h185.344c17.408 0 31.744-14.336 31.744-31.744 0-17.92-14.336-32.256-31.744-32.256z" p-id="2675"></path><path d="M706.56 265.216c0-17.408-14.336-31.744-31.744-31.744h-465.92c-17.408 0-31.744 14.336-31.744 31.744 0 17.408 14.336 31.744 31.744 31.744h465.92c17.408 0 31.744-14.336 31.744-31.744zM332.8 576.512c0-17.408-14.336-31.744-31.744-31.744H205.824c-17.408 0-31.744 14.336-31.744 31.744 0 17.408 14.336 31.744 31.744 31.744h95.232c17.408 0 31.744-14.336 31.744-31.744zM206.848 700.928c-17.408 0-31.744 14.336-31.744 31.744 0 17.408 14.336 31.744 31.744 31.744h80.896c17.408 0 31.744-14.336 31.744-31.744 0.512-17.408-13.824-31.744-31.232-31.744H206.848zM399.872 425.984c0-17.408-14.336-31.744-31.744-31.744h-163.84c-17.408 0-31.744 14.336-31.744 31.744s14.336 31.744 31.744 31.744h163.84c17.408 0 31.744-14.336 31.744-31.744zM974.336 630.784c-3.072-23.552-9.216-46.592-17.408-68.608-5.632-14.336-12.288-28.672-20.48-42.496-10.24-16.896-31.744-22.528-48.64-12.8a35.7888 35.7888 0 0 0-13.312 48.64c6.144 10.24 11.264 21.504 15.36 32.256 6.656 16.896 10.752 34.304 13.312 52.224 1.536 10.24 2.048 20.48 2.048 31.232 0 128-103.936 231.936-231.936 231.936-128 0-231.936-103.936-231.936-231.936s103.936-231.936 231.936-231.936c40.448 0 80.384 10.752 115.712 30.72 8.192 4.608 17.92 6.144 27.136 3.584 9.216-2.56 16.896-8.192 22.016-16.896 4.608-8.192 6.144-17.92 3.584-27.136-2.56-9.216-8.192-16.896-16.896-22.016-46.08-26.624-98.304-40.448-151.552-40.448-167.424 0-303.616 136.192-303.616 303.616 0 167.424 136.192 303.616 303.616 303.616 167.424 0 303.616-136.192 303.616-303.616 0-12.8-1.024-26.624-2.56-39.936z" p-id="2676"></path></svg>