<?xml version="1.0" standalone="no"?><!DOCTYPE svg PUBLIC "-//W3C//DTD SVG 1.1//EN" "http://www.w3.org/Graphics/SVG/1.1/DTD/svg11.dtd"><svg t="1636046761720" class="icon" viewBox="0 0 1024 1024" version="1.1" xmlns="http://www.w3.org/2000/svg" p-id="3637" xmlns:xlink="http://www.w3.org/1999/xlink" width="200" height="200"><defs><style type="text/css"></style></defs><path d="M808.96 566.857143a35.108571 35.108571 0 0 0-49.737143 0l-73.142857 73.142857-73.142857-73.142857a35.108571 35.108571 0 0 0-49.737143 49.737143l73.142857 73.142857-73.142857 73.142857a35.84 35.84 0 0 0 0 50.468571 35.108571 35.108571 0 0 0 49.737143 0l73.142857-73.142857 73.142857 73.142857a35.108571 35.108571 0 0 0 49.737143 0 35.84 35.84 0 0 0 0-50.468571l-73.142857-73.142857 73.142857-73.142857a35.108571 35.108571 0 0 0 0-49.737143z m-604.16-365.714286a35.108571 35.108571 0 1 0 0 73.142857h408.868571a35.108571 35.108571 0 1 0 0-73.142857z m477.622857 139.702857A341.577143 341.577143 0 1 0 1024 683.154286a341.577143 341.577143 0 0 0-341.577143-342.308572z m0 613.668572a272.822857 272.822857 0 1 1 273.554286-270.628572 272.822857 272.822857 0 0 1-273.554286 270.628572z m-408.137143-68.022857H136.777143a62.902857 62.902857 0 0 1-68.754286-68.022858V136.045714c0-59.977143 11.702857-68.022857 68.754286-68.022857h545.645714c52.662857 0 68.754286 17.554286 68.754286 68.022857v68.754286a34.377143 34.377143 0 1 0 68.754286 0v-68.754286C819.931429 35.84 787.017143 0 681.691429 0H136.045714C73.142857 0 0 8.045714 0 133.12v709.485714a122.148571 122.148571 0 0 0 6.582857 35.108572 107.52 107.52 0 0 0 104.594286 73.142857h161.645714a34.377143 34.377143 0 0 0 0-68.022857z m0-477.622858H204.8a34.377143 34.377143 0 1 0 0 68.754286h68.022857a34.377143 34.377143 0 1 0 0-68.754286z" p-id="3638"></path></svg>