<?xml version="1.0" standalone="no"?><!DOCTYPE svg PUBLIC "-//W3C//DTD SVG 1.1//EN" "http://www.w3.org/Graphics/SVG/1.1/DTD/svg11.dtd"><svg t="1636047311019" class="icon" viewBox="0 0 1024 1024" version="1.1" xmlns="http://www.w3.org/2000/svg" p-id="24515" xmlns:xlink="http://www.w3.org/1999/xlink" width="200" height="200"><defs><style type="text/css"></style></defs><path d="M932.590299 806.941589H889.263158c13.949226-35.929825 49.244995-129.981424 49.244995-143.296594 0-66.575851-58.967183-120.68194-131.67224-120.68194-72.493705 0-131.672239 54.106089-131.672239 120.68194 0 15.851393 30.434675 98.067286 48.610939 143.296594h-42.693086c-44.806605 0-81.370485 33.604954-81.370485 74.818576V904.586171c0 41.213622 36.56388 74.818576 81.370485 74.818576h251.508772c44.806605 0 81.370485-33.604954 81.370485-74.818576v-23.037358c0-41.213622-36.56388-74.607224-81.370485-74.607224z m-168.658823-66.998555c-15.217337-39.945511-26.207637-72.705057-26.630341-76.509391 0-34.661713 31.068731-62.982869 69.534778-62.982869 38.254696 0 69.112074 27.898452 69.534778 62.560165-2.113519 8.87678-37.409288 103.562436-53.260681 143.719298h-32.336842c-6.974613-16.062745-17.542208-42.693086-26.841692-66.787203z m187.891847 141.817131V904.586171c0 9.299484-8.665428 17.119505-19.233024 17.119505h-251.508772c-10.567595 0-19.233024-7.608669-19.233023-17.119505v-23.037358c0-9.299484 8.665428-17.119505 19.233023-17.119504h251.508772c10.567595 0.211352 19.233024 7.820021 19.233024 17.330856z m0 0" p-id="24516"></path><path d="M250.76904 655.40227c-14.794634 0-26.630341 18.598968-26.63034 37.831992 0 19.233024 12.047059 37.831992 26.63034 37.831992h160.204747c14.794634 0 26.630341-18.598968 26.630341-37.831992 0-19.233024-12.047059-37.831992-26.630341-37.831992h-160.204747z m263.978535-181.128586c0-19.233024-12.892466-37.831992-28.955212-37.831992H253.093911c-16.062745 0-28.955212 18.598968-28.955211 37.831992 0 19.233024 12.892466 37.831992 28.955211 37.831992h232.4871c16.062745 0 29.166563-18.81032 29.166564-37.831992z m154.286894-217.481114c0-19.233024-14.160578-37.197936-31.702787-37.197936H255.841486c-17.542208 0-31.702786 17.964912-31.702786 37.197936 0 19.233024 14.160578 37.197936 31.702786 37.197936h381.490196c17.542208 0 31.702786-17.964912 31.702787-37.197936z m0 0" p-id="24517"></path><path d="M153.124458 81.159133h628.560578c20.501135 0 37.197936 16.696801 37.197936 37.197936v331.188442c0 20.501135 16.696801 37.197936 37.197936 37.197936 20.501135 0 37.197936-16.696801 37.197936-37.197936v-378.319918c0-35.507121-28.321156-64.462332-62.982869-64.462332H104.513519c-34.873065 0-62.982869 28.955212-62.982869 64.462332v883.450981c0 35.507121 28.321156 64.462332 62.982869 64.462332h398.186997c20.501135 0 37.197936-16.696801 37.197936-37.197936 0-20.501135-16.696801-37.197936-37.197936-37.197936H153.124458c-20.501135 0-37.197936-16.696801-37.197936-37.197936V118.357069c0-20.501135 16.696801-37.197936 37.197936-37.197936z m0 0" p-id="24518"></path></svg>