<?xml version="1.0" standalone="no"?><!DOCTYPE svg PUBLIC "-//W3C//DTD SVG 1.1//EN" "http://www.w3.org/Graphics/SVG/1.1/DTD/svg11.dtd"><svg t="1636046308917" class="icon" viewBox="0 0 1024 1024" version="1.1" xmlns="http://www.w3.org/2000/svg" p-id="7647" xmlns:xlink="http://www.w3.org/1999/xlink" width="200" height="200"><defs><style type="text/css"></style></defs><path d="M335.872 921.6H128a25.6 25.6 0 0 1-25.6-25.6V128c0-14.08 11.52-25.6 25.6-25.6h768c14.08 0 25.6 11.52 25.6 25.6v169.216a38.4 38.4 0 0 0 76.8 0V128A102.4 102.4 0 0 0 896 25.6H128A102.4 102.4 0 0 0 25.6 128v768A102.4 102.4 0 0 0 128 998.4h207.872a38.4 38.4 0 0 0 0-76.8z" p-id="7648"></path><path d="M184.448 225.344h524.544a38.4 38.4 0 1 0 0-76.8H184.448a38.4 38.4 0 1 0 0 76.8zM184.448 390.4H544a38.4 38.4 0 1 0 0-76.8H184.448a38.4 38.4 0 1 0 0 76.8zM627.072 506.944c37.952 0 50.88 16.96 38.72 50.56-20.352 47.488-46.4 92.224-77.44 133.376l15.936 11.52 11.392-11.52c15.104-15.296 28.096-29.888 38.72-43.712 13.568-15.296 28.8-17.6 45.44-6.848 12.16 13.824 12.16 28.288 0 43.712-10.624 12.288-26.624 29.056-47.744 50.56 11.264 8.384 21.888 17.6 31.872 27.52 16.64 15.36 21.312 29.888 13.632 43.712-12.16 15.36-27.328 17.728-45.504 6.848a617.472 617.472 0 0 1-38.72-32.192 153.984 153.984 0 0 0-20.48-16v170.176c-1.6 13.696-11.456 22.272-29.632 25.344-19.776-1.536-30.4-9.152-31.936-23.04v-177.024c-27.264 36.736-52.416 46.784-75.2 29.888-15.296-15.296-10.688-35.328 13.568-59.776a496.576 496.576 0 0 0 118.4-158.72H478.784c-15.232-1.408-22.784-12.288-22.784-32.192 1.408-19.904 9.856-30.656 25.088-32.192h57.024a141.952 141.952 0 0 1-4.608-20.672 500.864 500.864 0 0 1-6.784-29.888c-1.536-16.832 7.552-27.52 27.328-32.192 19.712-1.472 32.64 6.08 38.72 23.04 1.408 4.608 3.072 10.688 4.608 18.304 1.408 9.216 3.712 23.04 6.784 41.408h22.912z" p-id="7649"></path><path d="M907.264 458.688c37.952-1.408 55.36 14.656 52.416 48.256v193.28c0 111.808-8.448 182.4-25.152 211.52-15.232 23.04-53.952 30.72-116.224 23.04-21.248-3.136-32.64-13.824-34.24-32.192 1.408-19.904 12.16-30.72 32-32.192 12.16 0 24.192 0.768 36.352 2.304a58.24 58.24 0 0 0 18.176-2.304c16.64-1.472 25.152-66.752 25.152-195.456V541.504c0-10.752-3.84-16.192-11.456-16.192h-59.2c-4.48 125.696-13.568 209.28-27.264 250.624-15.296 59.776-51.648 112.64-109.376 158.72-21.248 15.232-40.96 15.232-59.2 0-13.696-16.96-9.856-32.96 11.392-48.256a258.496 258.496 0 0 0 91.136-128.832c16.64-52.096 24.256-129.408 22.848-232.256H697.6c-15.296-1.408-22.848-13.056-22.848-34.56 1.408-19.84 9.856-30.656 25.152-32.192l207.36 0.128z" p-id="7650"></path></svg>