<?xml version="1.0" standalone="no"?><!DOCTYPE svg PUBLIC "-//W3C//DTD SVG 1.1//EN" "http://www.w3.org/Graphics/SVG/1.1/DTD/svg11.dtd"><svg t="1636077740171" class="icon" viewBox="0 0 1117 1024" version="1.1" xmlns="http://www.w3.org/2000/svg" p-id="31169" xmlns:xlink="http://www.w3.org/1999/xlink" width="218.1640625" height="200"><defs><style type="text/css"></style></defs><path d="M924.672 856.808727a36.910545 36.910545 0 0 1-27.182545-25.6 33.466182 33.466182 0 0 1 11.170909-34.257454c33.652364-32.488727 52.224-75.729455 51.805091-120.552728 0-72.005818-49.524364-115.991273-110.685091-115.991272-61.114182 0-110.638545 43.985455-110.638546 115.991272-0.372364 44.683636 18.059636 87.877818 51.525818 120.413091h-0.186181a33.512727 33.512727 0 0 1 11.403636 34.443637 36.957091 36.957091 0 0 1-27.461818 25.693091c-102.865455 18.152727-154.530909 70.283636-154.530909 109.288727 0 47.941818 90.251636 57.902545 229.934545 57.902545 139.636364 0 229.888-9.914182 229.888-57.902545 0-39.051636-51.898182-91.322182-154.996364-109.381818z m-277.643636-514.792727H260.468364V252.741818h386.56v89.227637z m0 193.768727H260.468364V446.370909h386.56v89.367273z m-145.780364 191.534546H260.468364V638.138182h240.779636v89.227636z m0.930909 179.106909H97.745455V89.367273h711.912727v385.768727h97.373091V76.334545C907.031273 34.257455 869.794909 0.186182 823.901091 0.139636H83.688727C37.794909 0.139636 0.558545 34.257455 0.512 76.334545v843.124364c0.046545 42.077091 37.282909 76.194909 83.176727 76.194909h418.536728v-89.227636h-0.046546z" p-id="31170" fill="#e6e6e6"></path></svg>