<?xml version="1.0" standalone="no"?><!DOCTYPE svg PUBLIC "-//W3C//DTD SVG 1.1//EN" "http://www.w3.org/Graphics/SVG/1.1/DTD/svg11.dtd"><svg t="1636047095900" class="icon" viewBox="0 0 1024 1024" version="1.1" xmlns="http://www.w3.org/2000/svg" p-id="10744" xmlns:xlink="http://www.w3.org/1999/xlink" width="200" height="200"><defs><style type="text/css"></style></defs><path d="M224.569541 445.621466m47.984945 0l95.969889 0q47.984945 0 47.984945 47.984945l0 0q0 47.984945-47.984945 47.984945l-95.969889 0q-47.984945 0-47.984945-47.984945l0 0q0-47.984945 47.984945-47.984945Z" p-id="10745"></path><path d="M222.010344 669.551208m47.984945 0l479.849447 0q47.984945 0 47.984945 47.984945l0 0q0 47.984945-47.984945 47.984945l-479.849447 0q-47.984945 0-47.984945-47.984945l0 0q0-47.984945 47.984945-47.984945Z" p-id="10746"></path><path d="M224.569541 221.691724m47.984945 0l95.969889 0q47.984945 0 47.984945 47.984945l0 0q0 47.984945-47.984945 47.984945l-95.969889 0q-47.984945 0-47.984945-47.984945l0 0q0-47.984945 47.984945-47.984945Z" p-id="10747"></path><path d="M1014.081832 100.129864l-339.09361 339.733409L528.474191 512.16059A12.795985 12.795985 0 0 1 511.83941 495.525809l72.937116-146.514031 339.09361-339.09361a31.989963 31.989963 0 0 1 45.425747 0l44.785949 45.425748a30.710365 30.710365 0 0 1 0 44.785948z" p-id="10748"></path><path d="M1023.678821 896.040147V565.263928a46.705346 46.705346 0 0 0-93.410693 0v301.345453a63.979926 63.979926 0 0 1-63.979926 63.979927H157.390619a63.979926 63.979926 0 0 1-63.979927-63.979927V157.071999a63.979926 63.979926 0 0 1 63.979927-63.979927H486.24744A46.705346 46.705346 0 1 0 486.24744 0.321179H127.959853a127.959853 127.959853 0 0 0-127.959853 127.959853v767.759115a127.959853 127.959853 0 0 0 127.959853 127.959853h767.759115a127.959853 127.959853 0 0 0 127.959853-127.959853z" p-id="10749"></path></svg>