<?xml version="1.0" standalone="no"?><!DOCTYPE svg PUBLIC "-//W3C//DTD SVG 1.1//EN" "http://www.w3.org/Graphics/SVG/1.1/DTD/svg11.dtd"><svg t="1636046986066" class="icon" viewBox="0 0 1024 1024" version="1.1" xmlns="http://www.w3.org/2000/svg" p-id="9228" xmlns:xlink="http://www.w3.org/1999/xlink" width="200" height="200"><defs><style type="text/css"></style></defs><path d="M512 1024C229.683 1024 0 794.296 0 512S229.683 0 512 0s512 229.704 512 512-229.663 512-512 512z m0-921.6c-225.853 0-409.6 183.747-409.6 409.6S286.147 921.6 512 921.6 921.6 737.853 921.6 512 737.853 102.4 512 102.4z" p-id="9229"></path><path d="M704.369 612.844l-204.8-51.2A51.2 51.2 0 0 1 460.8 512V256a51.2 51.2 0 0 1 102.4 0v216.003l166.031 41.553a51.2 51.2 0 1 1-24.842 99.308z" p-id="9230"></path></svg>